<?xml version="1.0" encoding="UTF-8"?>
<svg viewBox="0 0 960 540" xmlns="http://www.w3.org/2000/svg" role="img" aria-label="MRI classification illustration">
  <defs>
    <linearGradient id="bg" x1="0" x2="1">
      <stop offset="0" stop-color="#f8fafc"/>
      <stop offset="1" stop-color="#eef2ff"/>
    </linearGradient>
    <filter id="s" x="-20%" y="-20%" width="140%" height="140%">
      <feDropShadow dx="0" dy="6" stdDeviation="8" flood-opacity=".15"/>
    </filter>
  </defs>
  <rect width="960" height="540" fill="url(#bg)"/>

  <!-- Head silhouette -->
  <g transform="translate(280,120)" filter="url(#s)">
    <path d="M180,10 C260,10 330,70 330,150 c0,40-15,70-35,95 v45 h-70 v-30 c-20,5-40,5-60,5 -90,0-150-60-150-145 C15,75 90,10 180,10z"
          fill="#ffffff" stroke="#e5e7eb" stroke-width="2"/>
    <!-- Brain squiggles -->
    <path d="M160,120 c-20,-30 40,-40 50,-10 s40,10 35,30 -10,30 -30,20 -25,20 -40,10 -5,-20 -15,-20z"
          fill="none" stroke="#2563eb" stroke-width="4" />
    <path d="M140,150 c-10,-20 20,-25 30,-8 s20,8 18,18 -8,18 -18,12 -12,12 -20,6 -2,-12 -10,-12z"
          fill="none" stroke="#60a5fa" stroke-width="4" />
  </g>

  <g fill="#374151" font-family="system-ui, -apple-system, Segoe UI, Roboto, Arial" font-size="16">
    <text x="320" y="440">CNN/Xception on MRI scans for Alzheimer’s severity</text>
  </g>
</svg>
